<?xml version="1.0" standalone="no"?>
<!DOCTYPE svg PUBLIC "-//W3C//DTD SVG 20010904//EN"
 "http://www.w3.org/TR/2001/REC-SVG-20010904/DTD/svg10.dtd">
<svg version="1.0" xmlns="http://www.w3.org/2000/svg"
 width="1015.000000pt" height="610.000000pt" viewBox="0 0 1015.000000 610.000000"
 preserveAspectRatio="xMidYMid meet">
<metadata>
Created by potrace 1.15, written by Peter Selinger 2001-2017
</metadata>
<g transform="translate(0.000000,610.000000) scale(0.100000,-0.100000)"
fill="#000000" stroke="none">
<path d="M4750 6053 c-1572 -34 -3062 -314 -4220 -794 l-150 -62 0 -2147 0
-2147 150 -62 c960 -398 2143 -659 3425 -755 716 -54 1534 -54 2250 0 1282 96
2465 357 3425 755 l150 62 0 2147 0 2147 -148 61 c-1328 550 -3071 834 -4882
795z m755 -113 c1166 -36 2191 -186 3152 -460 317 -91 752 -242 947 -330 l66
-29 0 -2071 0 -2071 -66 -29 c-101 -46 -441 -172 -614 -228 -1484 -483 -3334
-669 -5155 -516 -1104 92 -2147 313 -3016 640 -109 41 -227 87 -263 104 l-66
29 0 2071 0 2071 66 29 c107 49 446 174 634 235 1245 404 2791 602 4315 555z"/>
<path d="M4785 5884 c-1517 -36 -2881 -284 -3992 -726 l-203 -80 0 -2029 0
-2029 56 -25 c113 -50 404 -159 592 -221 2265 -753 5431 -753 7687 1 187 62
478 171 589 220 l56 25 0 2029 0 2029 -203 80 c-1012 403 -2255 648 -3602 711
-236 11 -783 20 -980 15z m1205 -48 c1321 -93 2436 -324 3370 -698 l185 -75 0
-2014 0 -2014 -40 -19 c-146 -69 -624 -238 -915 -322 -2250 -654 -5227 -610
-7365 108 -182 61 -497 179 -570 214 l-40 19 0 2014 0 2014 185 75 c653 261
1459 467 2295 587 469 66 792 96 1425 129 188 10 1261 -3 1470 -18z"/>
<path d="M4685 5819 c-1423 -38 -2736 -283 -3818 -712 l-177 -70 2 -1990 3
-1990 180 -72 c2385 -954 6022 -954 8410 0 l180 72 3 1990 2 1990 -157 63
c-966 385 -2089 619 -3368 700 -170 11 -829 31 -930 28 -33 -1 -181 -5 -330
-9z m1012 -29 c1378 -63 2673 -321 3646 -727 l107 -45 0 -1972 0 -1972 -171
-68 c-1464 -583 -3424 -827 -5364 -666 -1131 94 -2148 316 -3012 658 l-193 76
0 1972 0 1972 107 45 c959 400 2269 664 3608 726 266 12 1010 13 1272 1z"/>
<path d="M4541 5023 l-74 -4 6 -119 c3 -66 4 -120 2 -120 -1 0 -45 48 -96 108
-51 59 -97 109 -101 112 -6 5 -260 -7 -263 -12 -2 -4 26 -493 28 -494 1 -1 49
2 107 5 l105 6 -3 124 c-3 145 -14 145 120 -6 l93 -105 120 7 c66 3 122 8 124
10 2 3 -2 115 -9 250 l-13 245 -36 -2 c-20 -1 -69 -4 -110 -5z"/>
<path d="M4790 4950 l0 -80 85 0 85 0 0 -170 0 -170 140 0 140 0 0 170 0 170
90 0 90 0 0 80 0 80 -315 0 -315 0 0 -80z"/>
<path d="M5516 4983 c-3 -21 -8 -110 -11 -198 -3 -88 -8 -181 -11 -207 l-6
-47 44 -5 c23 -3 87 -7 141 -9 l97 -4 0 32 c0 18 3 52 6 77 l6 45 122 -1 121
-1 3 61 3 61 -68 6 c-37 4 -92 7 -120 7 -51 0 -53 1 -53 27 l0 26 144 -6 143
-7 7 46 c3 26 6 61 6 79 l0 32 -242 11 c-351 17 -325 19 -332 -25z"/>
<path d="M3555 4942 c-154 -19 -281 -35 -282 -36 -2 -2 57 -489 60 -491 1 -1
137 14 302 34 283 34 300 37 298 56 -9 96 -16 135 -25 135 -15 0 -258 -29
-290 -35 -22 -4 -28 -1 -28 14 0 20 11 23 130 36 112 12 111 11 104 58 -3 23
-7 47 -9 53 -2 8 -33 7 -107 -2 -136 -17 -138 -17 -138 4 0 16 15 20 113 31
61 7 126 15 144 18 l32 5 -6 52 c-3 28 -8 62 -12 76 l-6 25 -280 -33z"/>
<path d="M6326 4945 c-110 -39 -162 -129 -154 -266 6 -105 60 -165 189 -210
51 -18 87 -22 184 -23 110 -1 125 1 176 25 95 45 134 118 127 243 -3 59 -9 81
-31 114 -34 52 -110 97 -199 117 -83 19 -240 19 -292 0z m228 -147 c31 -43 14
-174 -25 -202 -44 -30 -79 6 -79 82 0 108 63 179 104 120z"/>
<path d="M7020 4889 c-1 -2 -20 -112 -44 -244 -24 -132 -42 -242 -40 -244 3
-3 250 -51 266 -51 4 0 10 24 13 53 8 65 17 80 41 75 14 -2 20 -18 29 -70 6
-37 13 -69 15 -72 3 -2 59 -14 125 -25 66 -12 132 -24 147 -27 l28 -6 -15 36
c-8 19 -15 46 -15 58 0 43 -20 96 -45 120 -32 30 -31 38 3 38 78 0 130 114 86
189 -19 33 -69 68 -115 82 -19 5 -124 25 -234 45 -110 19 -210 38 -222 41 -13
3 -23 4 -23 2z"/>
<path d="M2728 4816 c-125 -23 -231 -45 -235 -49 -7 -8 75 -467 86 -479 6 -7
259 36 268 46 2 2 -1 23 -6 47 -17 72 -14 91 12 87 15 -2 31 -19 48 -51 14
-26 30 -52 36 -58 8 -8 54 -3 156 17 l146 27 -24 29 c-14 16 -32 44 -40 62
-22 45 -52 76 -86 88 l-29 10 32 22 c44 29 60 62 55 113 -8 79 -50 116 -142
126 -36 5 -113 -6 -277 -37z"/>
<path d="M7835 4718 c-7 -18 -123 -463 -121 -465 0 -1 90 -24 199 -52 260 -67
339 -67 424 -5 37 28 79 111 88 175 14 95 -39 185 -137 235 -43 22 -402 124
-436 124 -7 0 -15 -6 -17 -12z m292 -210 c41 -33 15 -156 -37 -183 -33 -17
-40 -18 -58 -6 -11 6 -8 28 14 110 25 93 29 101 48 95 12 -4 27 -11 33 -16z"/>
<path d="M1915 4631 c-194 -51 -220 -60 -217 -77 7 -42 115 -449 121 -456 10
-11 457 108 519 139 83 39 112 105 77 173 -20 39 -53 60 -95 60 -35 0 -35 1
-14 18 45 36 56 90 29 142 -41 78 -124 79 -420 1z"/>
<path d="M3921 3748 c1 -40 -2 -96 -6 -124 -7 -51 -8 -52 -46 -58 -44 -7 -102
-53 -126 -100 -9 -18 -16 -55 -16 -87 0 -111 76 -189 185 -189 116 0 198 76
198 182 0 63 -10 74 -57 62 -35 -8 -38 -12 -45 -54 -20 -121 -168 -120 -172 0
-1 71 62 109 130 78 24 -11 28 -10 50 17 25 32 31 60 14 70 -5 3 -10 15 -10
26 0 15 5 19 18 15 58 -16 83 -16 114 -1 49 25 68 54 68 103 0 79 -82 129
-170 103 -51 -15 -57 -14 -63 9 -4 15 -14 20 -37 20 l-31 0 2 -72z"/>
<path d="M5510 3708 c-51 -26 -90 -78 -90 -119 0 -28 2 -29 45 -29 41 0 47 3
70 41 31 48 68 52 73 7 4 -30 -28 -58 -65 -58 -13 0 -32 -9 -43 -20 -25 -25
-26 -60 -2 -60 28 0 62 -29 62 -54 0 -29 -43 -76 -68 -76 -29 0 -43 24 -40 67
l3 38 -45 3 c-54 4 -70 -13 -70 -72 0 -55 18 -88 60 -108 65 -33 176 -14 222
38 39 44 63 154 34 154 -5 0 -6 3 -3 7 4 3 1 13 -5 21 -10 11 -4 20 30 48 127
106 -14 250 -168 172z"/>
<path d="M5926 3723 c-36 -9 -94 -54 -121 -93 -68 -99 -98 -278 -55 -333 27
-34 80 -50 132 -42 102 18 208 196 208 351 0 88 -74 140 -164 117z m64 -128
c0 -58 -90 -245 -124 -258 -49 -19 -45 72 8 187 41 90 80 134 101 116 8 -7 15
-27 15 -45z"/>
<path d="M6304 3720 c-98 -23 -185 -157 -200 -308 -8 -77 12 -127 60 -147 49
-21 92 -19 143 6 85 41 139 146 113 223 -16 50 -34 60 -101 59 l-60 -2 18 30
c40 67 83 77 83 19 l0 -31 53 3 52 3 3 41 c4 51 -24 89 -76 104 -41 11 -44 11
-88 0z m-59 -156 c-3 -37 -12 -72 -20 -81 -8 -8 -15 -21 -15 -29 0 -12 5 -11
26 5 34 27 71 27 79 1 9 -28 -25 -91 -59 -110 -25 -14 -28 -13 -41 3 -7 10
-10 27 -7 39 3 14 -1 26 -13 34 -25 19 -36 18 -28 -3 4 -11 3 -14 -5 -9 -7 4
-12 14 -12 23 0 11 6 14 23 10 19 -5 22 -2 23 23 1 17 -3 30 -8 30 -5 0 -6 5
-2 12 4 7 3 8 -4 4 -7 -4 -12 -1 -12 8 0 9 7 16 15 16 8 0 15 5 15 11 0 5 -4
7 -10 4 -5 -3 -10 -2 -10 4 0 5 5 13 10 16 6 4 8 11 5 16 -4 5 0 9 8 9 8 0 20
7 27 15 7 8 14 15 17 15 2 0 2 -30 -2 -66z"/>
<path d="M4545 3686 c-11 -26 -22 -35 -42 -38 -22 -2 -29 -9 -31 -30 -2 -20 1
-28 12 -28 9 0 16 -5 16 -11 0 -24 -46 -116 -70 -139 -14 -14 -37 -41 -51 -60
-29 -38 -39 -37 -43 6 -3 26 -10 31 -57 36 -17 2 -14 28 3 28 5 0 6 5 3 11 -4
6 -14 8 -22 5 -8 -3 -11 -2 -8 3 9 15 65 10 65 -6 0 -7 -6 -13 -12 -13 -9 0
-8 -4 2 -10 13 -8 16 2 21 68 3 42 3 80 0 84 -4 4 -27 11 -51 14 l-45 6 -42
-86 c-48 -97 -52 -116 -22 -116 13 0 23 10 30 30 16 45 29 36 29 -21 0 -58
-13 -89 -38 -89 -26 0 -62 -29 -56 -45 3 -7 19 -18 36 -24 66 -23 137 -8 200
40 44 34 48 35 48 10 0 -11 12 -29 28 -41 55 -44 156 -1 220 94 37 55 40 76
12 76 -11 0 -31 -18 -50 -45 -35 -51 -73 -80 -91 -70 -14 9 -10 28 35 148 35
95 34 112 -4 87 -10 -6 -11 -10 -3 -10 10 0 10 -6 0 -27 -15 -35 -47 -62 -65
-55 -11 4 -11 6 -1 13 7 4 18 5 24 3 5 -3 2 1 -8 9 -15 13 -16 17 -4 29 8 7
12 24 10 38 -2 13 -1 21 3 17 3 -3 13 1 22 9 10 11 17 12 22 4 5 -7 11 -6 20
5 12 15 11 16 -5 13 -12 -2 -21 4 -23 16 -2 10 0 16 6 12 5 -3 9 2 8 12 -1 11
5 16 17 14 9 -2 17 2 17 8 0 6 5 8 11 4 8 -4 4 -11 -10 -19 l-22 -11 26 -14
c14 -7 25 -20 25 -27 0 -22 32 -11 41 14 7 19 3 25 -19 37 -15 9 -21 15 -14
16 6 0 12 11 12 25 0 23 -3 25 -51 25 -48 0 -51 -2 -64 -34z"/>
<path d="M5227 3653 c-30 -38 -75 -90 -101 -118 -49 -52 -50 -54 -40 -79 9
-23 37 -19 64 9 13 14 25 23 27 21 3 -2 -14 -49 -37 -105 -23 -55 -39 -105
-35 -111 3 -5 28 -10 54 -10 l47 0 46 114 c34 85 43 117 34 126 -8 8 -7 11 4
8 8 -2 15 4 16 12 0 8 17 49 37 91 50 102 49 109 -12 109 -48 0 -49 -1 -104
-67z"/>
<path d="M4711 3374 c-28 -35 -26 -69 4 -99 60 -61 150 7 111 84 -26 49 -82
56 -115 15z"/>
<path d="M7580 2833 c-206 -41 -377 -76 -379 -78 -3 -4 29 -187 34 -193 2 -2
49 6 105 18 56 12 104 19 108 16 3 -3 23 -95 44 -203 22 -109 40 -198 41 -200
4 -4 322 60 329 66 3 3 -12 95 -34 204 -22 110 -38 201 -36 203 3 2 49 13 103
24 54 11 101 22 103 25 6 6 -30 195 -37 194 -3 0 -175 -34 -381 -76z"/>
<path d="M2230 2894 c0 -4 -25 -140 -56 -302 -41 -215 -53 -296 -45 -301 14
-9 251 -54 256 -49 2 2 18 82 36 178 17 96 35 178 38 183 4 4 15 -80 25 -185
10 -106 21 -196 24 -199 6 -6 225 -49 228 -45 1 0 43 81 94 179 50 97 93 177
94 177 1 0 -13 -83 -33 -185 -19 -101 -32 -188 -28 -191 12 -12 250 -55 257
-47 7 7 121 596 117 600 -9 8 -391 73 -397 66 -4 -4 -42 -73 -83 -152 -87
-166 -79 -169 -101 48 -8 79 -18 146 -20 149 -3 3 -86 20 -183 38 -98 18 -188
36 -200 39 -13 3 -23 2 -23 -1z"/>
<path d="M6668 2687 l-317 -40 5 -26 c2 -14 20 -151 39 -305 19 -153 36 -280
37 -281 6 -5 737 90 743 96 7 8 -15 189 -24 189 -3 0 -93 -11 -200 -25 -107
-14 -196 -24 -197 -22 -1 1 -4 11 -6 22 -3 19 8 21 149 39 145 18 152 20 148
40 -2 12 -7 42 -10 68 -6 45 -8 47 -33 43 -82 -15 -266 -34 -273 -29 -5 3 -9
13 -9 23 0 15 19 20 143 35 78 9 159 20 181 23 l38 6 -6 61 c-14 126 -14 126
-55 125 -20 -1 -179 -20 -353 -42z"/>
<path d="M3477 2378 c-86 -160 -155 -294 -152 -296 4 -4 250 -31 292 -32 17 0
27 10 37 35 15 34 16 35 63 29 141 -15 132 -12 143 -53 l10 -38 167 -15 c93
-9 169 -16 169 -15 2 3 -177 631 -180 635 -3 3 -351 41 -382 42 -6 0 -81 -131
-167 -292z"/>
<path d="M6054 2625 l-171 -10 -84 -98 -84 -97 -9 95 c-8 89 -10 94 -30 90
-12 -2 -87 -7 -168 -11 l-148 -6 0 -47 c0 -25 7 -158 15 -296 8 -137 15 -256
15 -264 0 -10 24 -12 128 -7 70 4 146 9 170 12 l42 5 0 63 c0 56 3 65 30 91
20 19 34 26 38 19 4 -6 32 -45 62 -87 55 -76 55 -77 100 -76 81 0 300 16 306
22 3 3 -51 82 -121 176 -69 94 -128 177 -131 185 -3 8 39 59 107 130 61 64
110 118 108 119 -2 1 -81 -2 -175 -8z"/>
<path d="M4385 2301 c-4 -165 -4 -304 0 -310 4 -7 65 -11 169 -11 l164 0 7 85
c6 70 10 85 23 85 31 0 42 -16 61 -85 11 -38 27 -75 37 -82 13 -10 66 -13 197
-13 l178 0 -19 25 c-11 14 -30 57 -41 95 -24 77 -66 134 -109 145 -27 8 -26 8
12 17 86 19 133 86 123 174 -6 57 -44 106 -103 135 -56 27 -198 38 -500 38
l-191 1 -8 -299z m469 108 c30 -24 33 -48 8 -79 -14 -17 -29 -22 -72 -23 l-55
-2 -3 63 -3 62 49 0 c35 0 57 -6 76 -21z"/>
<path d="M2976 1270 c-33 -193 -57 -352 -55 -354 2 -3 55 -13 117 -24 124 -21
114 -25 126 50 7 40 12 37 -86 54 -42 7 -42 7 -28 90 20 115 15 107 70 100
l48 -6 7 49 c8 59 3 71 -33 71 -50 0 -53 8 -37 99 8 46 17 86 19 89 3 2 31 0
63 -6 32 -6 61 -7 64 -4 10 11 21 102 12 102 -9 0 -179 28 -208 35 -19 4 -23
-15 -79 -345z"/>
<path d="M7085 1611 l-30 -6 -7 -113 c-3 -63 -8 -115 -10 -118 -2 -2 -24 45
-49 104 -30 70 -50 106 -59 105 -8 -1 -31 -4 -52 -7 l-36 -7 85 -187 c79 -173
87 -197 109 -322 14 -74 26 -145 29 -156 4 -20 8 -21 52 -13 25 5 48 11 50 13
3 2 -7 70 -22 150 l-26 147 16 177 c8 97 17 192 19 210 5 35 -2 37 -69 23z"/>
<path d="M3337 1227 c2 -188 6 -352 8 -363 4 -17 15 -23 51 -28 26 -3 49 -4
52 -2 4 5 202 676 202 687 0 6 -91 18 -98 14 -1 -1 -27 -91 -56 -199 -30 -109
-57 -200 -60 -204 -3 -3 -6 90 -6 207 0 161 -3 213 -12 215 -7 3 -29 7 -50 9
l-36 5 5 -341z"/>
<path d="M6625 1541 l-40 -6 -8 -359 c-4 -197 -6 -360 -5 -361 2 -2 24 -1 51
2 l47 6 0 72 c0 81 3 85 69 85 l37 0 17 -68 17 -67 43 3 c23 2 45 7 49 11 4 4
-37 160 -91 346 -110 379 -94 351 -186 336z"/>
<path d="M3724 1506 c-4 -12 -74 -663 -74 -687 0 -12 26 -18 117 -27 64 -6
118 -10 119 -9 0 1 4 25 7 54 l6 51 -69 7 -68 7 5 36 c2 21 7 64 11 97 l7 59
46 -3 c51 -3 59 7 59 75 0 33 -16 44 -69 44 -23 0 -24 2 -17 61 3 34 6 71 6
83 0 38 12 43 77 37 l61 -7 6 29 c8 41 7 77 -1 77 -5 1 -57 7 -117 14 -76 9
-109 9 -112 2z"/>
<path d="M6124 1482 c-7 -5 0 -111 24 -357 19 -192 35 -351 36 -352 1 -1 37 3
81 8 179 22 205 82 171 396 -21 190 -36 242 -81 282 -34 30 -39 31 -128 31
-51 0 -97 -4 -103 -8z m171 -122 c17 -33 45 -258 45 -367 0 -52 -4 -76 -16
-87 -22 -23 -43 -20 -48 7 -5 20 -46 442 -46 466 0 6 11 11 25 11 17 0 29 -9
40 -30z"/>
<path d="M4050 1463 c0 -10 -11 -168 -25 -352 -14 -184 -24 -335 -23 -336 2
-1 26 -5 54 -9 l51 -6 7 132 c8 148 12 168 30 168 9 0 17 -39 26 -137 7 -76
17 -146 22 -155 11 -22 98 -26 98 -5 0 6 -9 84 -20 172 -19 158 -19 159 0 180
67 71 66 263 -1 320 -31 26 -106 45 -174 45 -36 0 -45 -3 -45 -17z"/>
<path d="M5913 1383 c4 -49 9 -140 12 -203 l6 -115 -69 195 -68 195 -47 3
c-43 3 -47 1 -47 -20 0 -13 9 -158 20 -323 11 -165 20 -317 20 -339 l0 -39 47
7 c25 3 48 8 50 9 2 2 -3 92 -10 200 -6 108 -9 193 -6 189 3 -4 35 -91 70
-194 l64 -188 49 0 49 0 -6 63 c-3 34 -14 194 -24 355 l-17 292 -50 0 -49 0 6
-87z"/>
<path d="M4395 1448 c2 -7 23 -101 45 -208 41 -195 41 -195 34 -347 l-7 -153
52 0 c28 0 51 1 51 3 1 1 5 72 10 157 9 150 11 161 69 345 66 205 66 205 -1
205 l-37 0 -20 -67 c-11 -38 -25 -90 -32 -118 -15 -60 -21 -49 -44 85 -9 52
-22 98 -28 102 -21 13 -97 9 -92 -4z"/>
<path d="M5021 1433 c-51 -27 -72 -62 -78 -129 -6 -73 16 -133 88 -241 68
-100 93 -157 85 -196 -6 -32 -23 -57 -37 -57 -24 0 -49 42 -49 81 l0 40 -52
-3 -53 -3 3 -54 c4 -66 23 -106 65 -131 39 -24 116 -26 158 -4 67 34 90 164
45 259 -12 28 -50 92 -84 143 -65 99 -80 141 -63 185 20 53 71 19 71 -48 0
-21 5 -25 28 -25 57 0 72 10 72 46 0 44 -21 93 -52 121 -34 32 -103 39 -147
16z"/>
<path d="M5491 1143 l4 -308 -22 -3 c-13 -2 -25 4 -31 15 -6 10 -13 147 -17
306 l-8 287 -53 0 -54 0 6 -217 c9 -318 17 -409 41 -441 69 -95 212 -69 242
44 7 27 7 124 1 309 -5 149 -10 280 -10 293 0 20 -5 22 -51 22 l-51 0 3 -307z"/>
<path d="M2337 1433 c-2 -5 -7 -24 -11 -44 l-6 -35 186 -43 c102 -23 190 -39
194 -34 11 11 23 83 14 83 -4 0 -85 18 -180 40 -187 43 -191 44 -197 33z"/>
<path d="M7705 1419 c-44 -11 -122 -29 -173 -40 l-92 -22 6 -36 c4 -20 10 -40
14 -44 4 -5 92 10 194 34 l186 42 -6 36 c-11 60 -6 59 -129 30z"/>
<path d="M632 3048 c-1 -1105 1 -2008 6 -2008 6 0 6 1359 -1 3290 -1 399 -3
-178 -5 -1282z"/>
<path d="M9518 3045 c-2 -1103 0 -2005 5 -2005 4 0 7 902 7 2005 0 1103 -2
2005 -5 2005 -3 0 -6 -902 -7 -2005z"/>
</g>
</svg>
